<?xml version="1.0" encoding="utf-8"?>
<!-- Generator: Adobe Illustrator 21.0.0, SVG Export Plug-In . SVG Version: 6.00 Build 0)  -->
<svg version="1.1" id="Layer_1" xmlns="http://www.w3.org/2000/svg" xmlns:xlink="http://www.w3.org/1999/xlink" x="0px" y="0px"
	 viewBox="0 0 381 1269.1" style="enable-background:new 0 0 381 1269.1;" xml:space="preserve">
<style type="text/css">
	.st0{fill:#001622;}
	.st1{fill:#003950;}
</style>
<title>background</title>
<polygon class="st0" points="99.5,248.6 99.5,90 201.1,179.8 308.3,90.4 308.3,248.4 380.8,248.4 380.8,0 308.3,0 201.3,90.4 
	100.1,0 0.8,0 0.8,248.6 "/>
<rect x="0.8" y="268.3" class="st0" width="380" height="178.4"/>
<polygon class="st1" points="231.8,366.1 1.3,366.1 1.3,288.8 380.9,288.8 380.9,408.3 232.4,447.1 0.7,447.1 0.7,428.5 "/>
<polygon class="st0" points="231.8,527.7 1.3,527.7 1.3,605 381,605 381,485.5 232.5,446.7 0.7,446.7 0.7,465.3 "/>
<rect x="0.8" y="624.2" class="st0" width="380" height="289.7"/>
<polygon class="st1" points="282.1,892.6 282.1,734 180.4,823.8 73.2,734.4 73.2,892.4 0.8,892.4 0.8,644 73.2,644 180.3,734.4 
	281.5,644 380.8,644 380.8,892.6 "/>
<rect x="0.1" y="1090.7" class="st0" width="380" height="178.3"/>
<polygon class="st1" points="231.1,1171.2 0.6,1171.2 0.6,1248.6 380.3,1248.6 380.3,1129.1 231.8,1090.2 0,1090.2 0,1108.9 "/>
<polygon class="st0" points="231.2,1009.7 0.7,1009.7 0.7,932.4 380.3,932.4 380.3,1051.9 231.8,1090.7 0.1,1090.7 0.1,1072 "/>
</svg>
