<svg id="Layer_1" data-name="Layer 1" xmlns="http://www.w3.org/2000/svg" viewBox="0 0 250 124.02"><defs><style>.cls-1{fill:#fff;}.cls-2{fill:#ac162c;}</style></defs><title>mbs-logo</title><g id="white-fill"><path class="cls-1" d="M56.26,119H57a4.72,4.72,0,0,0,.77,2.31,3.52,3.52,0,0,0,2.89,1.6,2.51,2.51,0,0,0,2.66-2.37,2.57,2.57,0,0,0-1.08-2,10,10,0,0,0-1-.64l-1-.52c-2-1.08-2.62-1.56-3.12-2.23a3.35,3.35,0,0,1-.69-2.1c0-2.16,1.79-3.64,4.41-3.64A4.07,4.07,0,0,1,64,110.67l0.69-1.33h0.46v4.29H64.42c-0.4-2.21-1.48-3.37-3.14-3.37a2.21,2.21,0,0,0-2.39,2.18c0,0.92.37,1.31,2,2.23l0.94,0.52,1,0.58a5.27,5.27,0,0,1,2.41,2.08,3.72,3.72,0,0,1,.4,1.79,4.12,4.12,0,0,1-4.41,4.16,5.57,5.57,0,0,1-3.72-1.35L56.72,124H56.27v-5Z" transform="translate(0)"/><path class="cls-1" d="M81.89,110.48V121.4c0,1.25.21,1.42,1.75,1.46v0.77a27.36,27.36,0,0,0-3.12-.14,27.87,27.87,0,0,0-3.14.14v-0.77c1.56,0,1.77-.21,1.77-1.46V110.48H78.52c-1.69,0-2.46.81-3,3.06H74.81l0.67-3.85H85.55l0.67,3.85H85.49c-0.52-2.27-1.29-3.06-3-3.06H81.89Z" transform="translate(0)"/><path class="cls-1" d="M101.51,119.82H97l-0.56,1.46a2.49,2.49,0,0,0-.23.94c0,0.48.25,0.6,1.46,0.64v0.77c-1.16-.08-1.54-0.08-2.16-0.08s-1,0-2.18.08v-0.77c1.39-.08,1.77-0.4,2.43-2.08l4.62-11.63,4.58,12.23a1.81,1.81,0,0,0,2.08,1.48v0.77a26.81,26.81,0,0,0-3.14-.15,27.21,27.21,0,0,0-3.14.15v-0.77l0.46,0c0.77,0,1-.17,1-0.56a1.72,1.72,0,0,0-.06-0.38l-0.1-.37ZM97.29,119h4l-1.81-5.45Z" transform="translate(0)"/><path class="cls-1" d="M116.05,110.46v-0.77h5.89a5.75,5.75,0,0,1,4.33,1.48,8.05,8.05,0,0,1-.14,11,7,7,0,0,1-4.85,1.44H116v-0.77c1.54,0,1.75-.23,1.75-1.46v-9.42c0-1.23-.23-1.42-1.75-1.46m4.49,0v11.38c0,0.77.19,0.92,1.06,0.92,1.5,0,2.37-.33,2.93-1.14,0.73-1,1.06-2.72,1.06-5.2,0-4.16-1.14-6-3.81-6h-1.25Z" transform="translate(0)"/><path class="cls-1" d="M144.32,122.86v0.77a29.87,29.87,0,0,0-3.12-.15,30.2,30.2,0,0,0-3.14.15v-0.77c1.54,0,1.77-.23,1.77-1.46v-9.55c0-1.23-.23-1.41-1.77-1.46v-0.77a30.49,30.49,0,0,0,3.14.15,30.15,30.15,0,0,0,3.12-.15v0.77c-1.52,0-1.75.23-1.75,1.46v9.55c0,1.25.21,1.42,1.75,1.46" transform="translate(0)"/><path class="cls-1" d="M162.84,110.39v-0.77c1,0.06,1.38.08,2.16,0.08s1.16,0,2.14-.08v0.77c-1.54,0-1.77.23-1.77,1.46v6.76a5.11,5.11,0,0,1-.87,3.39,4.91,4.91,0,0,1-4.12,1.79,5.1,5.1,0,0,1-4-1.58,4.64,4.64,0,0,1-1-3.39v-7c0-1.23-.23-1.41-1.75-1.46v-0.77a29.81,29.81,0,0,0,3.12.15,30.47,30.47,0,0,0,3.14-.15v0.77c-1.54,0-1.77.23-1.77,1.46v7.49c0,2.21,1,3.25,3,3.25a3.32,3.32,0,0,0,3-1.48,5.38,5.38,0,0,0,.46-2.68v-6.58c0-1.23-.23-1.41-1.75-1.46" transform="translate(0)"/><path class="cls-1" d="M179.19,111.29L179,121.4v0.17c0,1.06.25,1.25,1.77,1.29v0.77c-1-.06-1.37-0.06-2.06-0.06s-1.08,0-2.27.06v-0.77c1.54,0,1.73-.19,1.75-1.46l0.21-9.53v-0.08c0-1.12-.27-1.33-1.75-1.37v-0.79a22,22,0,0,0,2.31.1c1,0,1.42,0,2.46-.1l3.77,9.11,3.79-9.11a23.15,23.15,0,0,0,2.37.1,20.22,20.22,0,0,0,2.23-.1v0.77c-1.5.06-1.75,0.25-1.75,1.35v0.1L192,121.4c0,1.25.21,1.42,1.75,1.46v0.77a29.81,29.81,0,0,0-3.12-.15,30.19,30.19,0,0,0-3.14.15v-0.77c1.52,0,1.77-.23,1.77-1.37V121.4l-0.19-10-3.79,9.24c-0.23.56-.48,1.27-0.75,2.1l-0.12.42H184l-0.12-.39-0.31-.89-0.33-.89-0.25-.62Z" transform="translate(0)"/><polygon class="cls-1" points="81.63 29.66 72.02 21.04 44.19 20.87 52.83 15.97 65.44 14.02 52.62 14.02 37.5 21.2 51.33 57.32 81.63 29.66"/><polygon class="cls-1" points="209.2 21.04 206.83 38.2 213.66 20.9 195.19 11.26 183.39 14 198.93 21.31 196.65 13.96 209.2 21.04"/><polygon class="cls-1" points="179.75 14.65 165.26 7.43 136.76 0 121.38 7.01 145.58 14.02 137.84 2.3 162.22 9.7 199.46 57.31 205.29 27.53 179.75 14.65"/><polygon class="cls-1" points="122.64 60.87 166.75 21.02 67.52 6.8 70.52 2.14 118.55 7.01 69.5 0 63.31 7.43 122.64 60.87"/><polygon class="cls-1" points="42.51 47.65 43.67 57.27 6.62 59.75 43.97 59.75 46.74 59.75 42.51 47.65"/><polygon class="cls-1" points="207.49 47.65 206.33 57.27 243.38 59.75 206.03 59.75 203.26 59.75 207.49 47.65"/><rect class="cls-1" x="160.42" y="86.15" width="9.31" height="2.15"/><path class="cls-1" d="M5.66,73.08L4.83,94.7v0.38c0,1.83.54,2.21,3.46,2.42v1c-2.12-.17-3-0.21-4.12-0.21s-2,0-4.16.21v-1c2.92-.21,3.33-0.54,3.41-2.79L4.29,74.25V74c0-1.92-.58-2.33-3.46-2.5v-1c1.62,0.13,2.25.17,3.41,0.17a31.83,31.83,0,0,0,4-.21L16,91.49l7.87-21.07a39.24,39.24,0,0,0,4,.21c1,0,1.71,0,3.29-.17v1c-2.83.17-3.46,0.58-3.46,2.46v0.29L28.11,94.7c0,2.25.42,2.58,3.42,2.79v1a48.52,48.52,0,0,0-5.21-.33,48.49,48.49,0,0,0-5.21.33v-1c2.83-.17,3.46-0.62,3.46-2.58V94.7L24.2,73.13,17.33,91.7l-0.5,1.37-0.58,1.54L15.7,96.2l-0.46,1.38H14.62l-0.46-1.33-0.58-1.62L13,93l-0.5-1.46Z" transform="translate(0)"/><path class="cls-1" d="M42.35,97.45c-3.79,0-5.46-2.92-5.5-9.41H49.26c-0.08-6.41-2.71-9.83-7.62-9.83s-8.12,4-8.12,10.45S36.65,98.82,42,98.82c4.08,0,6.75-2.54,7.29-6.83H47.64c-0.5,3.54-2.33,5.46-5.29,5.46M36.94,86.54c0.42-4.79,2-7.25,4.66-7.25s4.08,2.33,4.33,7.25h-9Z" transform="translate(0)"/><path class="cls-1" d="M51.74,79.75V79a25.73,25.73,0,0,0,5.5-1c0.21,1.54.29,2.21,0.38,3.46V82c0.92-2.37,2.71-3.75,4.87-3.75a3.38,3.38,0,0,1,3.62,3.37,1.78,1.78,0,0,1-1.75,2,1.54,1.54,0,0,1-1.71-1.42,2.43,2.43,0,0,1,.08-0.42l0.08-.42V81a1.09,1.09,0,0,0-1.25-1C59.41,80,58,82.58,58,86.71v8.7c0,1.79.42,2.12,3,2.25v0.83a43.25,43.25,0,0,0-9.29,0V97.66c2.54-.13,3-0.46,3-2.25V81.79c0-1.79-.25-2-2.41-2H51.74Z" transform="translate(0)"/><path class="cls-1" d="M82,77.83V84.7H81.13c-0.75-3.62-2.29-5.37-4.83-5.37-3.12,0-5,3.37-5,9.33s1.63,8.79,4.83,8.79q3.87,0,4.62-5.5H82.5c-0.54,4.46-2.92,6.87-6.66,6.87-4.83,0-8.12-4.08-8.12-10.16S71,78.21,76,78.21A5.4,5.4,0,0,1,80.21,80l1.13-2.12H82Z" transform="translate(0)"/><path class="cls-1" d="M94.29,97.45c-3.79,0-5.46-2.92-5.5-9.41h12.41c-0.08-6.41-2.71-9.83-7.62-9.83s-8.12,4-8.12,10.45S88.59,98.82,94,98.82c4.08,0,6.75-2.54,7.29-6.83H99.58c-0.5,3.54-2.33,5.46-5.29,5.46M88.88,86.54c0.42-4.79,2-7.25,4.66-7.25s4.08,2.33,4.33,7.25h-9Z" transform="translate(0)"/><path class="cls-1" d="M120.57,94.16v-24a39.56,39.56,0,0,1-6.29,1.14V72c2.62,0,3,.29,3,2.46v7.29c-1.54-2.5-2.75-3.25-5-3.25-4.46,0-7.58,4.21-7.58,10.2s3.17,10.2,7.71,10.2c2.37,0,4-1.08,5.16-3.42a15.55,15.55,0,0,0,.58,3.33,20.72,20.72,0,0,1,4.88-1l0.62-.08V97c-2.79-.09-3-0.29-3-2.83m-7.83,3.54c-3,0-4.58-3.12-4.58-9.08s1.46-9,4.46-9,4.67,3.17,4.67,9.29c0,5.79-1.54,8.79-4.54,8.79" transform="translate(0)"/><path class="cls-1" d="M134,97.45c-3.79,0-5.46-2.92-5.5-9.41h12.41c-0.08-6.41-2.71-9.83-7.62-9.83s-8.12,4-8.12,10.45,3.12,10.16,8.49,10.16c4.08,0,6.75-2.54,7.29-6.83H139.3c-0.5,3.54-2.33,5.46-5.29,5.46M128.6,86.54c0.42-4.79,2-7.25,4.67-7.25s4.08,2.33,4.33,7.25h-9Z" transform="translate(0)"/><path class="cls-1" d="M144.47,98.86v-7l0.91,0c0.75,3.79,2.5,5.62,5.41,5.62,2.46,0,4.29-1.62,4.29-3.75,0-1.42-.79-2.37-2.83-3.29l-1.59-.71-1.91-.87c-3-1.42-4-2.58-4-5,0-3.29,2.58-5.54,6.25-5.54a7,7,0,0,1,4.25,1.33L156,78h0.75v6.46h-1c-0.37-3.33-1.75-4.92-4.37-4.92A3.65,3.65,0,0,0,147.46,83c0,1.67.62,2.21,4.41,3.87l1.75,0.75c3.17,1.37,4.29,2.71,4.29,5.16,0,3.5-2.79,6-6.71,6a7.48,7.48,0,0,1-5-1.75l-1,1.88h-0.75Z" transform="translate(0)"/><path class="cls-1" d="M189.4,77.37a6.54,6.54,0,0,0-2.5-5.29c-1.42-1-3-1.5-5.75-1.5h-11v1c3,0.17,3.42.5,3.42,2.75v20.2c0,2.25-.33,2.54-3.42,2.79v1h10.54c3.08,0,4.75-.37,6.49-1.46a7.84,7.84,0,0,0,3.46-6.5,6.91,6.91,0,0,0-2.58-5.54,7.26,7.26,0,0,0-3.29-1.33c3-1.12,4.58-3.25,4.58-6.16m-12.29-5.5h3.54c3.5,0,5,1.71,5,5.58a6.4,6.4,0,0,1-1.37,4.37c-0.92,1-2,1.38-4.37,1.38h-2.83V71.88h0Zm4,12.62c2.21,0,3.46.37,4.41,1.33a6.89,6.89,0,0,1,1.5,4.75c0,4.17-2.08,6.5-5.79,6.5h-1.5c-2.21,0-2.58-.33-2.58-2.17V84.5h4Z" transform="translate(0)"/><path class="cls-1" d="M202.9,97.45c-3.79,0-5.46-2.92-5.5-9.41h12.41c-0.08-6.41-2.71-9.83-7.62-9.83s-8.12,4-8.12,10.45,3.12,10.16,8.5,10.16c4.08,0,6.75-2.54,7.29-6.83h-1.67c-0.5,3.54-2.33,5.46-5.29,5.46m-5.41-10.91c0.42-4.79,2-7.25,4.66-7.25s4.08,2.33,4.33,7.25h-9Z" transform="translate(0)"/><path class="cls-1" d="M212,79.91V79.21a25.7,25.7,0,0,0,5.5-1.25,22.55,22.55,0,0,1,.42,3.62,6.28,6.28,0,0,1,5.62-3.25,5.76,5.76,0,0,1,5.5,3.33,9.5,9.5,0,0,1,.63,3.75v10c0,1.79.42,2.12,3,2.25v0.83a40.26,40.26,0,0,0-4.54-.25,39.32,39.32,0,0,0-4.54.25V97.66c2.25-.08,2.79-0.5,2.79-2.17V85.29c0-3.62-1.08-5.08-3.75-5.08-2.83,0-4.33,1.79-4.33,5.21V95.49c0,1.67.54,2.08,2.71,2.17v0.83a39.1,39.1,0,0,0-4.49-.25,39.64,39.64,0,0,0-4.5.25V97.66c2.54-.12,3-0.46,3-2.25V81.91c0-1.71-.29-2-2.37-2-0.12,0-.33,0-0.54,0" transform="translate(0)"/><path class="cls-1" d="M234.26,98.36l11.29-18.57h-5.12c-2.71,0-3.37.58-4.87,4.33h-0.83l1-5.41H250L238.67,97.28h4.87c2.83,0,4-1.12,5.25-4.91h0.88l-1.08,6H234.26Z" transform="translate(0)"/></g><g id="red-fill"><polygon class="cls-2" points="100.23 46.19 116.05 59.75 51.62 59.75 100.23 46.19"/><polygon class="cls-2" points="184.28 46.19 196.56 59.75 127.81 59.75 184.28 46.19"/></g></svg>